<?xml version="1.0" encoding="UTF-8"?>
<svg id="Layer_1" data-name="Layer 1" xmlns="http://www.w3.org/2000/svg" viewBox="0 0 42 58">
  <defs>
    <style>
      .cls-1 {
        opacity: 0;
      }

      .cls-1, .cls-2 {
        fill: #fff;
        stroke-width: 0px;
      }
    </style>
  </defs>
  <path class="cls-1" d="M38,31.49c0,12.82-8.75,18.51-17.12,18.51-8.32-.53-16.88-5.69-16.88-18.51S12.55,0,20.92,0s17.08,18.67,17.08,31.49Z"/>
  <path class="cls-2" d="M20.92,0C12.55,0,4,18.67,4,31.49s8.56,17.98,16.88,18.51c8.37,0,17.12-5.69,17.12-18.51S29.28,0,20.92,0ZM21.25,38.66c-4.32,0-8.78-1.54-8.78-8.75s4.42-17.71,8.74-17.71,8.82,10.5,8.82,17.71-4.46,8.75-8.78,8.75Z"/>
</svg>