<svg width="56" height="57" viewBox="0 0 56 57" fill="none" xmlns="http://www.w3.org/2000/svg">
<path d="M5.92969 6.64453L50.0027 28.4187" stroke="#EA8CE4" stroke-width="11" stroke-linecap="round"/>
<path d="M5.92969 51L49.6231 29.2258" stroke="#EA8CE4" stroke-width="11" stroke-linecap="round"/>
<path d="M33.9542 17.23C36.7592 17.23 39.0007 14.4575 39.0007 11.0816C39.0007 7.70567 36.7592 4.9332 33.9542 4.9332C31.1493 4.9332 28.9078 7.70567 28.9078 11.0816C28.9078 14.4575 31.1493 17.23 33.9542 17.23Z" fill="white" stroke="black" stroke-width="0.2"/>
<path d="M22.4152 13.1968C25.2201 13.1968 27.4616 10.4243 27.4616 7.04839C27.4616 3.67247 25.2201 0.9 22.4152 0.9C19.6102 0.9 17.3687 3.67247 17.3687 7.04839C17.3687 10.4243 19.6102 13.1968 22.4152 13.1968Z" fill="white" stroke="black" stroke-width="0.2"/>
<ellipse cx="33.9576" cy="13.0971" rx="2.47321" ry="2.41935" fill="#2B2B2B"/>
<ellipse cx="22.4107" cy="9.06389" rx="2.47321" ry="2.41935" fill="#2B2B2B"/>
<path d="M10.5257 42.4758L10.7867 37.0006L15.5035 39.9594L10.5257 42.4758Z" fill="white" stroke="black" stroke-width="0.2"/>
<path d="M2.88506 46.3372L3.14609 40.8619L7.86283 43.8207L2.88506 46.3372Z" fill="white" stroke="black" stroke-width="0.2"/>
<path d="M18.2679 38.5618L18.5289 33.0865L23.2456 36.0453L18.2679 38.5618Z" fill="white" stroke="black" stroke-width="0.2"/>
<path d="M25.5882 34.8606L25.8492 29.3854L30.566 32.3441L25.5882 34.8606Z" fill="white" stroke="black" stroke-width="0.2"/>
<path d="M10.5566 15.1801L10.8493 20.6539L15.5488 17.669L10.5566 15.1801Z" fill="white" stroke="black" stroke-width="0.2"/>
<path d="M2.89252 11.3618L3.1852 16.8355L7.88476 13.8507L2.89252 11.3618Z" fill="white" stroke="black" stroke-width="0.2"/>
<path d="M18.3222 19.0512L18.6149 24.5249L23.3145 21.5401L18.3222 19.0512Z" fill="white" stroke="black" stroke-width="0.2"/>
<path d="M25.666 22.7133L25.9586 28.1871L30.6582 25.2022L25.666 22.7133Z" fill="white" stroke="black" stroke-width="0.2"/>
</svg>
