<svg width="50" height="50" viewBox="0 0 50 50" fill="none" xmlns="http://www.w3.org/2000/svg">
<path fill-rule="evenodd" clip-rule="evenodd" d="M0.038028 15.5839C0.060173 12.3587 2.31006 9.76517 5.06329 9.79111L45.0123 10.1675C47.7656 10.1935 49.9795 12.829 49.9574 16.0543C49.9352 19.2795 47.6854 21.873 44.9321 21.8471L4.9831 21.4707C2.22987 21.4447 0.0158831 18.8091 0.038028 15.5839Z" fill="#EA8CE4"/>
<path fill-rule="evenodd" clip-rule="evenodd" d="M0.038028 40.0058C0.060173 36.7806 2.31006 34.187 5.06329 34.213L45.0123 34.5894C47.7656 34.6153 49.9795 37.2509 49.9574 40.4761C49.9352 43.7014 47.6854 46.2949 44.9321 46.269L4.9831 45.8925C2.22987 45.8666 0.0158831 43.231 0.038028 40.0058Z" fill="#EA8CE4"/>
<path d="M21.0609 29.4407L23.8217 34.8259L18.4499 34.8155L21.0609 29.4407Z" fill="white"/>
<path fill-rule="evenodd" clip-rule="evenodd" d="M21.0609 29.4407L18.4499 34.8155L23.8217 34.8259L21.0609 29.4407ZM21.0667 29.8614L18.763 34.6038L23.5027 34.6129L21.0667 29.8614Z" fill="black"/>
<path d="M13.3031 29.4271L16.0639 34.8122L10.6921 34.8018L13.3031 29.4271Z" fill="white"/>
<path fill-rule="evenodd" clip-rule="evenodd" d="M13.3031 29.4271L10.6921 34.8018L16.0639 34.8122L13.3031 29.4271ZM13.3089 29.8477L11.0051 34.5901L15.7449 34.5993L13.3089 29.8477Z" fill="black"/>
<path d="M28.9203 29.4564L31.6811 34.8415L26.3093 34.8311L28.9203 29.4564Z" fill="white"/>
<path fill-rule="evenodd" clip-rule="evenodd" d="M28.9203 29.4564L26.3093 34.8311L31.6811 34.8415L28.9203 29.4564ZM28.9261 29.877L26.6223 34.6194L31.3621 34.6286L28.9261 29.877Z" fill="black"/>
<path d="M36.3578 29.472L39.1186 34.8571L33.7468 34.8467L36.3578 29.472Z" fill="white"/>
<path fill-rule="evenodd" clip-rule="evenodd" d="M36.3578 29.472L33.7468 34.8467L39.1186 34.8571L36.3578 29.472ZM36.3636 29.8926L34.0598 34.635L38.7996 34.6442L36.3636 29.8926Z" fill="black"/>
<path d="M21.0142 26.931L23.8181 21.5773L18.446 21.5279L21.0142 26.931Z" fill="white"/>
<path fill-rule="evenodd" clip-rule="evenodd" d="M21.0142 26.931L18.446 21.5279L23.8181 21.5773L21.0142 26.931ZM21.0234 26.5104L18.7574 21.7431L23.4975 21.7867L21.0234 26.5104Z" fill="black"/>
<path d="M13.2486 26.8587L16.0525 21.5051L10.6804 21.4556L13.2486 26.8587Z" fill="white"/>
<path fill-rule="evenodd" clip-rule="evenodd" d="M13.2486 26.8587L10.6804 21.4556L16.0525 21.5051L13.2486 26.8587ZM13.2578 26.4382L10.9917 21.6708L15.7318 21.7144L13.2578 26.4382Z" fill="black"/>
<path d="M28.8736 27.0052L31.6775 21.6516L26.3054 21.6021L28.8736 27.0052Z" fill="white"/>
<path fill-rule="evenodd" clip-rule="evenodd" d="M28.8736 27.0052L26.3054 21.6021L31.6775 21.6516L28.8736 27.0052ZM28.8828 26.5847L26.6167 21.8173L31.3568 21.8609L28.8828 26.5847Z" fill="black"/>
<path d="M36.3111 27.0716L39.115 21.718L33.7429 21.6685L36.3111 27.0716Z" fill="white"/>
<path fill-rule="evenodd" clip-rule="evenodd" d="M36.3111 27.0716L33.7429 21.6685L39.115 21.718L36.3111 27.0716ZM36.3203 26.6511L34.0542 21.8837L38.7943 21.9273L36.3203 26.6511Z" fill="black"/>
<path d="M20.4397 6.24761C20.4397 9.58804 18.2251 12.296 15.4933 12.296C12.7615 12.296 10.5469 9.58804 10.5469 6.24761C10.5469 2.90717 12.7615 0.199219 15.4933 0.199219C18.2251 0.199219 20.4397 2.90717 20.4397 6.24761Z" fill="white"/>
<path d="M37.096 6.24761C37.096 9.58804 34.8814 12.296 32.1495 12.296C29.4177 12.296 27.2031 9.58804 27.2031 6.24761C27.2031 2.90717 29.4177 0.199219 32.1495 0.199219C34.8814 0.199219 37.096 2.90717 37.096 6.24761Z" fill="white"/>
<path fill-rule="evenodd" clip-rule="evenodd" d="M20.6366 6.24839C20.6366 9.65979 18.3682 12.4968 15.4902 12.4968C12.6122 12.4968 10.3438 9.65979 10.3438 6.24839C10.3438 2.83699 12.6122 0 15.4902 0C18.3682 0 20.6366 2.83699 20.6366 6.24839ZM15.4902 12.2968C18.222 12.2968 20.4366 9.58882 20.4366 6.24839C20.4366 2.90796 18.222 0.2 15.4902 0.2C12.7583 0.2 10.5438 2.90796 10.5438 6.24839C10.5438 9.58882 12.7583 12.2968 15.4902 12.2968Z" fill="black"/>
<path fill-rule="evenodd" clip-rule="evenodd" d="M37.2928 6.24839C37.2928 9.65979 35.0244 12.4968 32.1464 12.4968C29.2684 12.4968 27 9.65979 27 6.24839C27 2.83699 29.2684 0 32.1464 0C35.0244 0 37.2928 2.83699 37.2928 6.24839ZM32.1464 12.2968C34.8783 12.2968 37.0928 9.58882 37.0928 6.24839C37.0928 2.90796 34.8783 0.2 32.1464 0.2C29.4146 0.2 27.2 2.90796 27.2 6.24839C27.2 9.58882 29.4146 12.2968 32.1464 12.2968Z" fill="black"/>
<path d="M17.6359 6.19922C17.6359 7.30379 16.7206 8.19922 15.5914 8.19922C14.4622 8.19922 13.5469 7.30379 13.5469 6.19922C13.5469 5.09465 14.4622 4.19922 15.5914 4.19922C16.7206 4.19922 17.6359 5.09465 17.6359 6.19922Z" fill="#2B2B2B"/>
<path d="M34.2922 6.19922C34.2922 7.30379 33.3768 8.19922 32.2476 8.19922C31.1185 8.19922 30.2031 7.30379 30.2031 6.19922C30.2031 5.09465 31.1185 4.19922 32.2476 4.19922C33.3768 4.19922 34.2922 5.09465 34.2922 6.19922Z" fill="#2B2B2B"/>
</svg>
