<?xml version="1.0" encoding="utf-8"?>
<!-- Generator: Adobe Illustrator 28.3.0, SVG Export Plug-In . SVG Version: 6.00 Build 0)  -->
<svg version="1.1" id="Layer_1" xmlns="http://www.w3.org/2000/svg" xmlns:xlink="http://www.w3.org/1999/xlink" x="0px" y="0px"
	 viewBox="0 0 42 58" style="enable-background:new 0 0 42 58;" xml:space="preserve">
<style type="text/css">
	.st0{fill:#FFFFFF;}
	.st1{fill:#2B328B;}
</style>
<g>
	<path class="st0" d="M38,31.5C38,44.3,29.2,50,20.9,50C12.6,49.5,4,44.3,4,31.5S12.6,0,20.9,0S38,18.7,38,31.5z"/>
	<path class="st1" d="M20.9,0C12.6,0,4,18.7,4,31.5c0,12.8,8.6,18,16.9,18.5C29.2,50,38,44.3,38,31.5C38,18.7,29.3,0,20.9,0z
		 M21.3,38.7c-4.3,0-8.8-1.5-8.8-8.7c0-7.2,4.4-17.7,8.7-17.7c4.3,0,8.8,10.5,8.8,17.7C30,37.1,25.6,38.7,21.3,38.7z"/>
</g>
</svg>
