<svg width="56" height="57" viewBox="0 0 56 57" fill="none" xmlns="http://www.w3.org/2000/svg">
<path d="M50.0703 6.64453L5.99732 28.4187" stroke="#EA8CE4" stroke-width="11" stroke-linecap="round"/>
<path d="M50.0703 51L6.37691 29.2258" stroke="#EA8CE4" stroke-width="11" stroke-linecap="round"/>
<path d="M22.0458 17.23C19.2408 17.23 16.9993 14.4575 16.9993 11.0816C16.9993 7.70567 19.2408 4.9332 22.0458 4.9332C24.8507 4.9332 27.0922 7.70567 27.0922 11.0816C27.0922 14.4575 24.8507 17.23 22.0458 17.23Z" fill="white" stroke="black" stroke-width="0.2"/>
<path d="M33.5848 13.1968C30.7799 13.1968 28.5384 10.4243 28.5384 7.04839C28.5384 3.67247 30.7799 0.9 33.5848 0.9C36.3898 0.9 38.6313 3.67247 38.6313 7.04839C38.6313 10.4243 36.3898 13.1968 33.5848 13.1968Z" fill="white" stroke="black" stroke-width="0.2"/>
<ellipse cx="2.47321" cy="2.41935" rx="2.47321" ry="2.41935" transform="matrix(-1 0 0 1 24.5156 10.6777)" fill="#2B2B2B"/>
<ellipse cx="2.47321" cy="2.41935" rx="2.47321" ry="2.41935" transform="matrix(-1 0 0 1 36.0625 6.64453)" fill="#2B2B2B"/>
<path d="M45.4743 42.4758L45.2133 37.0006L40.4965 39.9594L45.4743 42.4758Z" fill="white" stroke="black" stroke-width="0.2"/>
<path d="M53.1149 46.3372L52.8539 40.8619L48.1372 43.8207L53.1149 46.3372Z" fill="white" stroke="black" stroke-width="0.2"/>
<path d="M37.7321 38.5618L37.4711 33.0865L32.7544 36.0453L37.7321 38.5618Z" fill="white" stroke="black" stroke-width="0.2"/>
<path d="M30.4118 34.8606L30.1508 29.3854L25.434 32.3441L30.4118 34.8606Z" fill="white" stroke="black" stroke-width="0.2"/>
<path d="M45.4434 15.1801L45.1507 20.6539L40.4512 17.669L45.4434 15.1801Z" fill="white" stroke="black" stroke-width="0.2"/>
<path d="M53.1075 11.3618L52.8148 16.8355L48.1152 13.8507L53.1075 11.3618Z" fill="white" stroke="black" stroke-width="0.2"/>
<path d="M37.6778 19.0512L37.3851 24.5249L32.6855 21.5401L37.6778 19.0512Z" fill="white" stroke="black" stroke-width="0.2"/>
<path d="M30.334 22.7133L30.0414 28.1871L25.3418 25.2022L30.334 22.7133Z" fill="white" stroke="black" stroke-width="0.2"/>
</svg>
