<svg width="42" height="58" viewBox="0 0 42 58" fill="none" xmlns="http://www.w3.org/2000/svg">
<g filter="url(#filter0_d_420_452)">
<path d="M38 31.4876C38 44.3058 29.2454 50 20.88 50C12.5614 49.4697 4 44.3058 4 31.4876C4 18.6694 12.554 0 20.9194 0C29.2848 0 38 18.6694 38 31.4876Z" fill="white"/>
<path d="M38 31.4876C38 44.3058 29.2454 50 20.88 50C12.5614 49.4697 4 44.3058 4 31.4876C4 18.6694 12.554 0 20.9194 0C29.2848 0 38 18.6694 38 31.4876Z" fill="white"/>
<path d="M30.029 29.9079C30.029 37.1184 25.5711 38.657 21.2506 38.657C16.93 38.657 12.4688 37.1184 12.4688 29.9079C12.4688 22.6973 16.8867 12.1953 21.2073 12.1953C25.5278 12.1953 30.029 22.6973 30.029 29.9079Z" fill="#8A9DFF"/>
</g>
<defs>
<filter id="filter0_d_420_452" x="0" y="0" width="42" height="58" filterUnits="userSpaceOnUse" color-interpolation-filters="sRGB">
<feFlood flood-opacity="0" result="BackgroundImageFix"/>
<feColorMatrix in="SourceAlpha" type="matrix" values="0 0 0 0 0 0 0 0 0 0 0 0 0 0 0 0 0 0 127 0" result="hardAlpha"/>
<feOffset dy="4"/>
<feGaussianBlur stdDeviation="2"/>
<feComposite in2="hardAlpha" operator="out"/>
<feColorMatrix type="matrix" values="0 0 0 0 0 0 0 0 0 0 0 0 0 0 0 0 0 0 0.25 0"/>
<feBlend mode="normal" in2="BackgroundImageFix" result="effect1_dropShadow_420_452"/>
<feBlend mode="normal" in="SourceGraphic" in2="effect1_dropShadow_420_452" result="shape"/>
</filter>
</defs>
</svg>
