<svg width="42" height="58" viewBox="0 0 42 58" fill="none" xmlns="http://www.w3.org/2000/svg">
<g filter="url(#filter0_d_420_443)">
<path d="M32.8046 49.36C30.3043 49.7234 27.9202 48.1363 27.4234 45.6591C27.2466 44.7775 27.0839 43.8995 26.9353 43.025C26.5934 40.7244 26.3003 38.4484 26.056 36.1968C25.8118 33.8962 25.592 31.5957 25.3965 29.2952C25.2011 26.9946 25.0057 24.6696 24.8103 22.3201C24.7126 20.7538 24.5661 19.3343 24.3707 18.0617C24.2241 16.789 24.0043 15.6632 23.7112 14.6843C23.4181 13.7053 23.0517 12.8732 22.6121 12.188C22.1724 11.5027 21.6351 10.9887 21 10.6461C20.4138 10.3035 19.7055 10.1322 18.875 10.1322C17.9957 10.1322 17.1897 10.3279 16.4569 10.7195C15.773 11.1111 15.2356 11.674 14.8448 12.4082C14.454 13.1424 14.2586 14.0235 14.2586 15.0514C14.2586 16.0793 14.4784 16.9848 14.9181 17.768C15.3578 18.5512 16.0172 19.163 16.8966 19.6035C17.7759 19.9951 18.8506 20.1909 20.1207 20.1909C21.1954 20.1909 22.4167 20.0441 23.7845 19.7504C26.0358 19.2837 28.4469 20.5813 28.7932 22.8542L29.0275 24.3917C29.3491 26.5026 28.2192 28.6077 26.1748 29.2241C25.5213 29.4211 24.8711 29.5916 24.2241 29.7357C22.4655 30.1273 20.7069 30.3231 18.9483 30.3231C15.9684 30.3231 13.3549 29.8091 11.1078 28.7812C8.86063 27.7533 7.10201 26.2115 5.8319 24.1557C4.61063 22.0999 4 19.579 4 16.5932C4 13.5585 4.65948 10.793 5.97845 8.29662C7.34626 5.75135 9.22701 3.7445 11.6207 2.27607C14.0632 0.758689 16.8721 0 20.0474 0C22.8807 0 25.2256 0.562898 27.0819 1.68869C28.9871 2.76554 30.477 4.28292 31.5517 6.24082C32.6264 8.14978 33.408 10.3524 33.8966 12.8488C34.4339 15.2961 34.7759 17.9148 34.9224 20.7048C35.1667 23.7885 35.3621 26.5541 35.5086 29.0015C35.704 31.3999 35.8994 33.676 36.0948 35.8297C36.2902 37.9344 36.5345 40.0147 36.8276 42.0705C36.8921 42.5227 36.9613 42.9809 37.0352 43.445C37.4824 46.2523 35.6177 48.9512 32.8046 49.36Z" fill="white"/>
</g>
<defs>
<filter id="filter0_d_420_443" x="0" y="0" width="41.1016" height="57.4121" filterUnits="userSpaceOnUse" color-interpolation-filters="sRGB">
<feFlood flood-opacity="0" result="BackgroundImageFix"/>
<feColorMatrix in="SourceAlpha" type="matrix" values="0 0 0 0 0 0 0 0 0 0 0 0 0 0 0 0 0 0 127 0" result="hardAlpha"/>
<feOffset dy="4"/>
<feGaussianBlur stdDeviation="2"/>
<feComposite in2="hardAlpha" operator="out"/>
<feColorMatrix type="matrix" values="0 0 0 0 0 0 0 0 0 0 0 0 0 0 0 0 0 0 0.25 0"/>
<feBlend mode="normal" in2="BackgroundImageFix" result="effect1_dropShadow_420_443"/>
<feBlend mode="normal" in="SourceGraphic" in2="effect1_dropShadow_420_443" result="shape"/>
</filter>
</defs>
</svg>
