<svg width="41" height="57" viewBox="0 0 41 57" fill="none" xmlns="http://www.w3.org/2000/svg">
<g filter="url(#filter0_d_420_447)">
<path d="M32.0185 38.1367C33.6336 37.7233 35.39 38.5657 35.9485 40.1365L36.556 41.845C37.3749 44.1483 36.3172 46.7339 33.9838 47.4632C32.959 47.7835 31.9104 48.0559 30.838 48.2806C28.3719 48.7602 25.6698 49 22.7315 49C18.429 49 14.8873 48.5444 12.1065 47.6331C9.37809 46.6739 7.33179 45.3549 5.96759 43.6763C4.65586 41.9496 4 39.9832 4 37.777C4 35.4748 4.65586 33.2686 5.96759 31.1583C6.64962 30.0361 7.46639 28.9658 8.41792 27.9473C9.64048 26.6388 9.34929 24.3433 7.93519 23.2446C6.8858 22.3813 6.0463 21.3741 5.41667 20.223C4.83951 19.024 4.55093 17.6571 4.55093 16.1223C4.55093 13.964 5.12809 11.9736 6.28241 10.1511C7.43673 8.32853 8.95833 6.69784 10.8472 5.25899C12.7361 3.77218 14.8086 2.5012 17.0648 1.44604C17.9592 1.02777 18.8536 0.647175 19.7479 0.304268C22.0333 -0.57197 24.4965 0.719967 25.3771 3.0037C26.3761 5.59453 24.9665 8.44631 22.4399 9.59793C22.2993 9.66202 22.1603 9.7265 22.0231 9.79136C20.554 10.4628 19.2948 11.1583 18.2454 11.8777C17.196 12.5971 16.409 13.3405 15.8843 14.1079C15.3596 14.8273 15.0972 15.5468 15.0972 16.2662C15.0972 16.9376 15.3858 17.5132 15.963 17.9928C16.5401 18.4245 17.3009 18.7362 18.2454 18.9281C19.1898 19.1199 20.213 19.1918 21.3148 19.1439C23.1172 19.069 24.9512 20.0943 25.3335 21.8573L25.6453 23.2955C26.063 25.2218 25.1405 27.1801 23.4265 28.1534C22.2561 28.818 21.1849 29.4599 20.213 30.0791C18.534 31.1343 17.2485 32.1415 16.3565 33.1007C15.4645 34.0599 15.0185 35.0192 15.0185 35.9784C15.0185 36.7458 15.3333 37.3933 15.963 37.9209C16.5926 38.4005 17.5108 38.7602 18.7176 39C19.9769 39.2398 21.4722 39.3597 23.2037 39.3597C24.7253 39.3597 26.2469 39.2398 27.7685 39C29.3426 38.7602 30.7593 38.4724 32.0185 38.1367Z" fill="white"/>
</g>
<defs>
<filter id="filter0_d_420_447" x="0" y="0.0273438" width="40.8281" height="56.9727" filterUnits="userSpaceOnUse" color-interpolation-filters="sRGB">
<feFlood flood-opacity="0" result="BackgroundImageFix"/>
<feColorMatrix in="SourceAlpha" type="matrix" values="0 0 0 0 0 0 0 0 0 0 0 0 0 0 0 0 0 0 127 0" result="hardAlpha"/>
<feOffset dy="4"/>
<feGaussianBlur stdDeviation="2"/>
<feComposite in2="hardAlpha" operator="out"/>
<feColorMatrix type="matrix" values="0 0 0 0 0 0 0 0 0 0 0 0 0 0 0 0 0 0 0.25 0"/>
<feBlend mode="normal" in2="BackgroundImageFix" result="effect1_dropShadow_420_447"/>
<feBlend mode="normal" in="SourceGraphic" in2="effect1_dropShadow_420_447" result="shape"/>
</filter>
</defs>
</svg>
