<svg width="40" height="56" viewBox="0 0 40 56" fill="none" xmlns="http://www.w3.org/2000/svg">
<g filter="url(#filter0_d_420_400)">
<path d="M4.70575 12.707C3.76369 9.8032 4.86292 5.91366 7.16095 4.01945C9.49825 2.09288 12.166 2.97619 13.0676 5.97517L22.9644 38.8969C23.5386 40.8069 23.1954 43.2267 22.0829 45.1118C19.9998 48.6415 16.3667 48.6503 15.2241 45.1284L4.70575 12.707Z" fill="white"/>
<path d="M27.271 5.20639C28.2963 2.31303 30.9196 1.62129 33.0983 3.66984C35.2967 5.737 36.1797 9.78102 35.0504 12.6105L23.6734 41.1147C22.9449 42.9401 21.4295 43.7224 19.863 43.0818C17.2803 42.0257 15.7484 37.7247 16.8488 34.6192L27.271 5.20639Z" fill="white"/>
</g>
<defs>
<filter id="filter0_d_420_400" x="0.367188" y="2.49219" width="39.1719" height="53.2715" filterUnits="userSpaceOnUse" color-interpolation-filters="sRGB">
<feFlood flood-opacity="0" result="BackgroundImageFix"/>
<feColorMatrix in="SourceAlpha" type="matrix" values="0 0 0 0 0 0 0 0 0 0 0 0 0 0 0 0 0 0 127 0" result="hardAlpha"/>
<feOffset dy="4"/>
<feGaussianBlur stdDeviation="2"/>
<feComposite in2="hardAlpha" operator="out"/>
<feColorMatrix type="matrix" values="0 0 0 0 0 0 0 0 0 0 0 0 0 0 0 0 0 0 0.25 0"/>
<feBlend mode="normal" in2="BackgroundImageFix" result="effect1_dropShadow_420_400"/>
<feBlend mode="normal" in="SourceGraphic" in2="effect1_dropShadow_420_400" result="shape"/>
</filter>
</defs>
</svg>
