<svg width="245" height="455" viewBox="0 0 245 455" fill="none" xmlns="http://www.w3.org/2000/svg">
<path d="M75.2266 99.0508L0.00247964 99.5068L1.92897 417.089C2.05498 437.862 18.9966 454.599 39.7692 454.473C60.5417 454.347 77.2791 437.406 77.1531 416.633L75.2266 99.0508Z" fill="white"/>
<path d="M75.2266 99.0508L0.00247964 99.5068L1.92897 417.089C2.05498 437.862 18.9966 454.599 39.7692 454.473C60.5417 454.347 77.2791 437.406 77.1531 416.633L75.2266 99.0508Z" fill="#FEE37A"/>
<path d="M75.2266 99.0547L75.6856 174.251L213.968 173.407C231.025 173.303 244.768 159.392 244.664 142.335L244.393 98.0228L75.2266 99.0547Z" fill="white"/>
<path d="M181 30.8847C181 13.8276 194.828 0 211.885 0H213.115C230.172 0 244 13.8276 244 30.8847V107H181V30.8847Z" fill="white"/>
<path d="M181 30.8847C181 13.8276 194.828 0 211.885 0H213.115C230.172 0 244 13.8276 244 30.8847V107H181V30.8847Z" fill="#FEE37A"/>
<path d="M0 30.8847C0 13.8275 13.8276 0 30.8847 0H44.1153C61.1724 0 75 13.8276 75 30.8847V103H0V30.8847Z" fill="white"/>
<path d="M0 30.8847C0 13.8275 13.8276 0 30.8847 0H44.1153C61.1724 0 75 13.8276 75 30.8847V103H0V30.8847Z" fill="#FEE37A"/>
<path d="M97 30.8847C97 13.8275 110.828 0 127.885 0H129.115C146.172 0 160 13.8276 160 30.8847V103H97V30.8847Z" fill="white"/>
<path d="M97 30.8847C97 13.8275 110.828 0 127.885 0H129.115C146.172 0 160 13.8276 160 30.8847V103H97V30.8847Z" fill="#FEE37A"/>
<path d="M74.7812 99.0566L75.2403 174.253L213.97 173.407C231.027 173.303 244.77 159.391 244.666 142.334L244.395 98.022L74.7812 99.0566Z" fill="#FEE37A"/>
</svg>
