<svg width="333" height="436" viewBox="0 0 333 436" fill="none" xmlns="http://www.w3.org/2000/svg">
<path d="M13.4564 85.3257C6.02462 66.2905 13.6669 41.4983 30.526 29.9509L43.0156 21.3962C60.1496 9.66037 80.1428 16.142 87.2995 35.7527L191.104 320.197C195.956 333.494 193.728 349.982 185.357 362.732L179.975 370.927C163.892 395.421 134.208 394.611 124.369 369.41L13.4564 85.3257Z" fill="white"/>
<path d="M13.4564 85.3257C6.02462 66.2905 13.6669 41.4983 30.526 29.9509L43.0156 21.3962C60.1496 9.66037 80.1428 16.142 87.2995 35.7527L191.104 320.197C195.956 333.494 193.728 349.982 185.357 362.732L179.975 370.927C163.892 395.421 134.208 394.611 124.369 369.41L13.4564 85.3257Z" fill="#FFE588"/>
<path d="M245.869 56.1573C248.177 50.7914 249.331 48.1084 250.554 46.0603C258.953 31.9924 274.669 27.9341 288.758 36.1947C290.809 37.3973 293.103 39.1899 297.692 42.7749C302.326 46.3956 304.643 48.2059 306.441 50.0167C318.8 62.4603 323.683 82.8456 318.278 99.4324C317.492 101.846 316.242 104.488 313.741 109.773L185.843 380.064C185.667 380.436 185.579 380.623 185.497 380.793C179.265 393.624 167.148 399.903 154.429 396.89C154.26 396.85 154.077 396.804 153.712 396.713C152.949 396.523 152.567 396.427 152.284 396.35C129.706 390.224 116.245 358.667 126.035 334.814C126.158 334.514 126.329 334.116 126.671 333.32L245.869 56.1573Z" fill="white"/>
<path d="M245.861 56.1573C248.169 50.7914 249.323 48.1084 250.546 46.0603C258.946 31.9924 274.661 27.9341 288.75 36.1947C290.801 37.3973 293.095 39.1899 297.684 42.7749C302.318 46.3956 304.635 48.2059 306.433 50.0167C318.792 62.4603 323.675 82.8456 318.271 99.4324C317.484 101.846 316.234 104.488 313.733 109.773L185.836 380.064C185.66 380.436 185.571 380.623 185.489 380.793C179.257 393.624 167.14 399.903 154.421 396.89C154.253 396.85 154.07 396.804 153.704 396.713C152.941 396.523 152.56 396.427 152.276 396.35C129.698 390.224 116.237 358.667 126.027 334.814C126.15 334.514 126.321 334.116 126.663 333.32L245.861 56.1573Z" fill="#FFE588"/>
</svg>
