<svg width="269" height="408" viewBox="0 0 269 408" fill="none" xmlns="http://www.w3.org/2000/svg">
<path d="M186.203 1.13477L234.702 1.43065C253.645 1.54622 268.909 16.9963 268.795 35.9393L266.837 360.834C266.722 379.777 251.273 395.039 232.33 394.924L218.131 394.837C199.188 394.722 183.924 379.272 184.038 360.329L186.203 1.13477Z" fill="white"/>
<path d="M201.047 1.23047L200.542 84.535L34.3003 83.5143C15.3579 83.398 0.0952195 67.9479 0.210107 49.0055L0.299313 34.2975C0.414201 15.3551 15.8632 0.0935408 34.8055 0.209837L201.047 1.23047Z" fill="white"/>
<path d="M201.047 1.23047L200.542 84.535L34.3003 83.5143C15.3579 83.398 0.0952195 67.9479 0.210107 49.0055L0.299313 34.2975C0.414201 15.3551 15.8632 0.0935408 34.8055 0.209837L201.047 1.23047Z" fill="#E4997D"/>
<path d="M186.203 1.13477L234.702 1.43065C253.645 1.54622 268.909 16.9963 268.795 35.9393L268.494 85.8078L185.696 85.3027L186.203 1.13477Z" fill="#E4997D"/>
</svg>
