<svg width="272" height="409" viewBox="0 0 272 409" fill="none" xmlns="http://www.w3.org/2000/svg">
<path d="M83.5078 1.13867L47.7184 1.35569C21.3637 1.51551 0.128652 23.0097 0.288463 49.3643L2.13786 354.35C2.27769 377.41 21.0851 395.991 44.1454 395.851C67.2057 395.711 85.7864 376.904 85.6466 353.843L83.5078 1.13867Z" fill="white"/>
<path d="M83.5078 1.13867L47.7184 1.35569C21.3637 1.51551 0.128652 23.0097 0.288463 49.3643L2.14161 354.969C2.28145 378.03 21.0889 396.61 44.1492 396.471C67.2095 396.331 85.7902 377.523 85.6503 354.463L83.5078 1.13867Z" fill="#FFAC51"/>
<path d="M83.5078 1.14258L84.0174 84.6516L237.008 83.718C255.951 83.6024 271.213 68.1529 271.097 49.2105L271.006 34.2979C270.89 15.3556 255.441 0.0934124 236.499 0.209002L83.5078 1.14258Z" fill="white"/>
<path d="M44.9766 1.37891L45.4861 84.8879L237.011 83.7192C255.953 83.6036 271.215 68.1541 271.1 49.2117L271.009 34.2991C270.893 15.3567 255.444 0.0945992 236.501 0.210189L44.9766 1.37891Z" fill="#FFAC51"/>
</svg>
