<svg width="227" height="427" viewBox="0 0 227 427" fill="none" xmlns="http://www.w3.org/2000/svg">
<path d="M225.09 129.248C225.089 117.835 219.821 107.061 210.814 100.052L205.938 96.2571C181.554 77.2804 146.027 94.7832 146.215 125.681L147.817 389.855C147.941 410.289 164.606 426.753 185.04 426.63L188.339 426.61C208.687 426.486 225.116 409.955 225.114 389.607L225.09 129.248Z" fill="white"/>
<ellipse cx="112.801" cy="113.801" rx="112.801" ry="112.801" fill="white"/>
<path d="M153 159.5C153 221.798 158.5 226.602 112.801 226.602C50.5026 226.602 0 176.099 0 113.801C0 51.5027 50.5026 0 112.801 0C168 0 153 15 153 159.5Z" fill="#FF9CA8"/>
<ellipse cx="112.805" cy="113.801" rx="38.0703" ry="38.0703" fill="url(#paint0_linear_420_711)"/>
<defs>
<linearGradient id="paint0_linear_420_711" x1="112.805" y1="75.7305" x2="112.805" y2="151.871" gradientUnits="userSpaceOnUse">
<stop stop-color="#6C82CF"/>
<stop offset="1" stop-color="#7187D4"/>
</linearGradient>
</defs>
</svg>
