<svg width="333" height="436" viewBox="0 0 333 436" fill="none" xmlns="http://www.w3.org/2000/svg">
<path d="M13.8548 350.313C6.42306 369.348 14.0654 394.14 30.9244 405.688L43.414 414.242C60.5481 425.978 80.5413 419.497 87.6979 399.886L191.502 115.442C196.355 102.145 194.127 85.6562 185.755 72.9069L180.374 64.712C164.29 40.218 134.606 41.0276 124.767 66.2285L13.8548 350.313Z" fill="white"/>
<path d="M13.8548 350.313C6.42306 369.348 14.0654 394.14 30.9244 405.688L43.414 414.242C60.5481 425.978 80.5413 419.497 87.6979 399.886L191.502 115.442C196.355 102.145 194.127 85.6562 185.755 72.9069L180.374 64.712C164.29 40.218 134.606 41.0276 124.767 66.2285L13.8548 350.313Z" fill="#85D28D"/>
<path d="M246.268 379.481C248.575 384.847 249.729 387.53 250.952 389.578C259.352 403.646 275.067 407.705 289.156 399.444C291.208 398.241 293.502 396.449 298.09 392.864C302.724 389.243 305.041 387.433 306.839 385.622C319.198 373.178 324.081 352.793 318.677 336.206C317.89 333.793 316.64 331.15 314.139 325.865L186.242 55.5744C186.066 55.2022 185.978 55.0161 185.895 54.846C179.663 42.0142 167.546 35.7361 154.827 38.7488C154.659 38.7887 154.476 38.8344 154.11 38.9257C153.347 39.1161 152.966 39.2113 152.682 39.2884C130.104 45.4143 116.643 76.9714 126.433 100.825C126.556 101.125 126.727 101.523 127.069 102.318L246.268 379.481Z" fill="white"/>
<path d="M246.268 379.481C248.575 384.847 249.729 387.53 250.952 389.578C259.352 403.646 275.067 407.705 289.156 399.444C291.208 398.241 293.502 396.449 298.09 392.864C302.724 389.243 305.041 387.433 306.839 385.622C319.198 373.178 324.081 352.793 318.677 336.206C317.89 333.793 316.64 331.15 314.139 325.865L186.242 55.5744C186.066 55.2022 185.978 55.0161 185.895 54.846C179.663 42.0142 167.546 35.7361 154.827 38.7488C154.659 38.7887 154.476 38.8344 154.11 38.9257C153.347 39.1161 152.966 39.2113 152.682 39.2884C130.104 45.4143 116.643 76.9714 126.433 100.825C126.556 101.125 126.727 101.523 127.069 102.318L246.268 379.481Z" fill="#85D28D"/>
</svg>
