<svg width="319" height="376" viewBox="0 0 319 376" fill="none" xmlns="http://www.w3.org/2000/svg">
<path d="M319.004 236.787C319.004 333.179 236.864 376 158.376 376C80.3273 372.012 0 333.179 0 236.787C0 140.394 80.2577 0 158.746 0C237.234 0 319.004 140.394 319.004 236.787Z" fill="white"/>
<path d="M319.004 236.786C319.004 333.179 236.864 375.999 158.376 375.999C80.3273 372.011 0 333.179 0 236.786C0 140.393 71.0119 219.499 149.5 219.499C227.988 219.499 319.004 140.393 319.004 236.786Z" fill="#FFE02B"/>
<path d="M319.001 236.787C319.001 333.18 237.231 212 158.743 212C80.6946 208.012 158.743 308.393 158.743 212C158.743 115.607 80.255 0 158.743 0C237.231 0 319.001 140.394 319.001 236.787Z" fill="#FFE02B"/>
<path d="M226.783 227.697C226.783 271.981 192.624 281.43 159.518 281.43C126.411 281.43 92.2266 271.981 92.2266 227.697C92.2266 183.414 126.079 118.916 159.186 118.916C192.292 118.916 226.783 183.414 226.783 227.697Z" fill="url(#paint0_linear_420_1359)"/>
<defs>
<linearGradient id="paint0_linear_420_1359" x1="159.505" y1="118.916" x2="159.505" y2="307.879" gradientUnits="userSpaceOnUse">
<stop stop-color="#DFB1FF"/>
<stop offset="1" stop-color="#DDADFF"/>
</linearGradient>
</defs>
</svg>
