<svg width="227" height="426" viewBox="0 0 227 426" fill="none" xmlns="http://www.w3.org/2000/svg">
<path d="M225.092 128.248C225.091 116.835 219.823 106.062 210.816 99.0523L205.94 95.2577C181.556 76.281 146.029 93.7838 146.217 124.682L147.819 388.855C147.942 409.289 164.608 425.754 185.042 425.63L188.341 425.61C208.688 425.487 225.118 408.956 225.116 388.607L225.092 128.248Z" fill="white"/>
<ellipse cx="112.801" cy="112.801" rx="112.801" ry="112.801" fill="white"/>
<ellipse cx="112.801" cy="112.801" rx="112.801" ry="112.801" fill="#FF9CA8"/>
<ellipse cx="112.802" cy="112.801" rx="38.0703" ry="38.0703" fill="url(#paint0_linear_5_2)"/>
<path d="M149.358 67.0086L202.931 86.2319C216.63 91.1473 225.736 104.172 225.649 118.726L225.002 226L147 225.524L153.114 99.0369C153.262 95.9787 153.115 92.9134 152.676 89.8833L149.358 67.0086Z" fill="#FF9CA8"/>
<defs>
<linearGradient id="paint0_linear_5_2" x1="112.802" y1="74.7305" x2="112.802" y2="150.871" gradientUnits="userSpaceOnUse">
<stop stop-color="#6C82CF"/>
<stop offset="1" stop-color="#7187D4"/>
</linearGradient>
</defs>
</svg>
