<svg width="295" height="419" viewBox="0 0 295 419" fill="none" xmlns="http://www.w3.org/2000/svg">
<path d="M251.343 326.118C265.954 322.558 281.704 330.095 286.966 344.184L291.59 356.565C299.126 376.743 289.711 399.588 269.068 405.737C259.844 408.485 250.406 410.822 240.752 412.747C218.63 416.843 194.39 418.891 168.032 418.891C129.437 418.891 97.6659 414.999 72.7199 407.217C48.2446 399.025 29.8881 387.762 17.6505 373.426C5.88349 358.681 0 341.887 0 323.046C0 303.386 5.88349 284.544 17.6505 266.522C23.7131 257.026 30.9626 247.964 39.3991 239.338C50.2313 228.262 47.7563 208.153 35.3009 198.94C25.8873 191.567 18.3565 182.965 12.7083 173.135C7.53087 162.895 4.94213 151.222 4.94213 138.115C4.94213 119.683 10.1196 102.685 20.4745 87.1208C30.8295 71.5563 44.4792 57.6302 61.4236 45.3424C78.3681 32.645 96.9599 21.7909 117.199 12.7798C126.045 8.84134 134.891 5.29409 143.737 2.13806C163.052 -4.75306 183.62 5.97086 191.318 24.9785C200.432 47.4801 188.11 72.5885 165.825 82.2201C164.424 82.8256 163.042 83.4352 161.678 84.0489C148.499 89.7832 137.203 95.7223 127.789 101.866C118.376 108.01 111.316 114.359 106.609 120.912C101.902 127.056 99.5486 133.2 99.5486 139.344C99.5486 145.078 102.137 149.993 107.315 154.089C112.492 157.776 119.317 160.438 127.789 162.076C136.262 163.715 145.44 164.329 155.324 163.919C171.596 163.276 188.054 172.514 191.67 188.392L193.96 198.448C197.807 215.335 189.588 232.581 174.351 240.815C163.819 246.507 154.182 252.004 145.44 257.306C130.378 266.317 118.846 274.919 110.845 283.111C102.843 291.303 98.8426 299.494 98.8426 307.686C98.8426 314.24 101.667 319.769 107.315 324.275C112.963 328.371 121.2 331.443 132.025 333.491C143.322 335.539 156.736 336.563 172.269 336.563C185.918 336.563 199.568 335.539 213.218 333.491C227.338 331.443 240.046 328.985 251.343 326.118Z" fill="#D98AFF"/>
</svg>
