<svg width="269" height="408" viewBox="0 0 269 408" fill="none" xmlns="http://www.w3.org/2000/svg">
<path d="M186.203 1.13477L234.702 1.43065C253.645 1.54622 268.909 16.9963 268.795 35.9393L266.837 360.834C266.722 379.777 251.273 395.039 232.33 394.924L218.131 394.837C199.188 394.722 183.924 379.272 184.038 360.329L186.203 1.13477Z" fill="white"/>
<path d="M186.203 1.13477L234.702 1.43065C253.645 1.54622 268.909 16.9963 268.795 35.9393L266.837 360.834C266.722 379.777 251.273 395.039 232.33 394.924L218.131 394.837C199.188 394.722 183.924 379.272 184.038 360.329L186.203 1.13477Z" fill="#E4997D"/>
<path d="M206.672 1.26562L206.167 84.5701L34.3004 83.515C15.358 83.3987 0.0953556 67.9485 0.210243 49.0062L0.29945 34.2981C0.414337 15.3557 15.8633 0.0941634 34.8057 0.210459L206.672 1.26562Z" fill="white"/>
<path d="M206.672 1.26562L206.167 84.5701L34.3004 83.515C15.358 83.3987 0.0953556 67.9485 0.210243 49.0062L0.29945 34.2981C0.414337 15.3557 15.8633 0.0941634 34.8057 0.210459L206.672 1.26562Z" fill="#E4997D"/>
</svg>
