<svg width="333" height="436" viewBox="0 0 333 436" fill="none" xmlns="http://www.w3.org/2000/svg">
<path d="M13.4564 350.674C6.02462 369.71 13.6669 394.502 30.526 406.049L43.0156 414.604C60.1496 426.34 80.1428 419.858 87.2995 400.247L191.104 115.803C195.956 102.506 193.728 86.0175 185.357 73.2682L179.975 65.0733C163.892 40.5793 134.208 41.3889 124.369 66.5898L13.4564 350.674Z" fill="white"/>
<path d="M245.869 379.843C248.177 385.209 249.331 387.892 250.554 389.94C258.953 404.008 274.669 408.066 288.758 399.805C290.809 398.603 293.103 396.81 297.692 393.225C302.326 389.604 304.643 387.794 306.441 385.983C318.8 373.54 323.683 353.154 318.278 336.568C317.492 334.154 316.242 331.512 313.741 326.227L185.843 55.9357C185.667 55.5635 185.579 55.3774 185.497 55.2073C179.265 42.3755 167.148 36.0974 154.429 39.1101C154.26 39.15 154.077 39.1957 153.712 39.287C152.949 39.4775 152.567 39.5727 152.284 39.6497C129.706 45.7756 116.245 77.3327 126.035 101.186C126.158 101.486 126.329 101.884 126.671 102.68L245.869 379.843Z" fill="white"/>
<path d="M245.861 379.843C248.169 385.209 249.323 387.892 250.546 389.94C258.946 404.008 274.661 408.066 288.75 399.805C290.801 398.603 293.095 396.81 297.684 393.225C302.318 389.604 304.635 387.794 306.433 385.983C318.792 373.54 323.675 353.154 318.271 336.568C317.484 334.154 316.234 331.512 313.733 326.227L185.836 55.9357C185.66 55.5635 185.571 55.3774 185.489 55.2073C179.257 42.3755 167.14 36.0974 154.421 39.1101C154.253 39.15 154.07 39.1957 153.704 39.287C152.941 39.4775 152.56 39.5727 152.276 39.6497C129.698 45.7756 116.237 77.3327 126.027 101.186C126.15 101.486 126.321 101.884 126.663 102.68L245.861 379.843Z" fill="#85D28D"/>
</svg>
